HIERARCHY
ROOT Hips
{
  OFFSET 263.056 91.6644 -274.608
  CHANNELS 6 Xposition Yposition Zposition Zrotation Xrotation Yrotation
  JOINT LeftUpLeg
  {
    OFFSET 8.64259 1.95398 -2.38835
    CHANNELS 3 Zrotation Xrotation Yrotation
    JOINT LeftLeg
    {
      OFFSET 43.7702 0 0
      CHANNELS 3 Zrotation Xrotation Yrotation
      JOINT LeftFoot
      {
        OFFSET 40.6238 0 0
        CHANNELS 3 Zrotation Xrotation Yrotation
        JOINT LeftToeBase
        {
          OFFSET 12.7242 0 0
          CHANNELS 3 Zrotation Xrotation Yrotation
          End Site
          {
            OFFSET 0 0 0
          }
        }
      }
    }
  }
  JOINT RightUpLeg
  {
    OFFSET -8.2249 1.95398 -2.59336
    CHANNELS 3 Zrotation Xrotation Yrotation
    JOINT RightLeg
    {
      OFFSET 43.5653 0 0
      CHANNELS 3 Zrotation Xrotation Yrotation
      JOINT RightFoot
      {
        OFFSET 40.6238 0 0
        CHANNELS 3 Zrotation Xrotation Yrotation
        JOINT RightToeBase
        {
          OFFSET 12.7242 0 0
          CHANNELS 3 Zrotation Xrotation Yrotation
          End Site
          {
            OFFSET 0 0 0
          }
        }
      }
    }
  }
  JOINT Spine
  {
    OFFSET 0.165834 0.87714 6.61349
    CHANNELS 3 Zrotation Xrotation Yrotation
    JOINT Spine1
    {
      OFFSET 7.38963 1.71661e-005 0
      CHANNELS 3 Zrotation Xrotation Yrotation
      JOINT Spine2
      {
        OFFSET 11.9445 1.14441e-005 0
        CHANNELS 3 Zrotation Xrotation Yrotation
        JOINT Spine3
        {
          OFFSET 14.7254 4.19617e-005 0
          CHANNELS 3 Zrotation Xrotation Yrotation
          JOINT Spine4
          {
            OFFSET 10.9679 0 0
            CHANNELS 3 Zrotation Xrotation Yrotation
            JOINT RightShoulder
            {
              OFFSET 2.46616 -1.6653 3.69651
              CHANNELS 3 Zrotation Xrotation Yrotation
              JOINT RightArm
              {
                OFFSET 13.0012 0 0
                CHANNELS 3 Zrotation Xrotation Yrotation
                JOINT RightForeArm
                {
                  OFFSET 28.7848 1.52588e-005 0
                  CHANNELS 3 Zrotation Xrotation Yrotation
                  JOINT RightHand
                  {
                    OFFSET 26.5688 1.52588e-005 0
                    CHANNELS 3 Zrotation Xrotation Yrotation
                    End Site
                    {
                      OFFSET 0 0 0
                    }
                  }
                }
              }
            }
            JOINT LeftShoulder
            {
              OFFSET 2.38034 -1.29275 -3.7523
              CHANNELS 3 Zrotation Xrotation Yrotation
              JOINT LeftArm
              {
                OFFSET 16.3182 6.10352e-005 0
                CHANNELS 3 Zrotation Xrotation Yrotation
                JOINT LeftForeArm
                {
                  OFFSET 27.0901 0 0
                  CHANNELS 3 Zrotation Xrotation Yrotation
                  JOINT LeftHand
                  {
                    OFFSET 24.5451 1.52588e-005 0
                    CHANNELS 3 Zrotation Xrotation Yrotation
                    End Site
                    {
                      OFFSET 0 0 0
                    }
                  }
                }
              }
            }
            JOINT Neck
            {
              OFFSET 5.0226 -0.0266342 0
              CHANNELS 3 Zrotation Xrotation Yrotation
              JOINT Head
              {
                OFFSET 6.69364 2.86102e-005 0
                CHANNELS 3 Zrotation Xrotation Yrotation
                End Site
                {
                  OFFSET 0 0 0
                }
              }
            }
          }
        }
      }
    }
  }
}
MOTION
Frames:	6
Frame Time:	0.0416667
-68.8976 92.9852 -85.2243 96.0812 -35.355 92.2616 -174.729 -3.27928 91.6663 -40.1754 24.3476 1.63521 52.6317 -3.11817 4.74706 54.9568 31.4558 7.04394 177.904 24.0684 89.1665 -29.5422 10.8017 0.800592 60.3652 0.0712368 0.203 35.6946 0.311249 8.46825 -0.989498 7.8203 -90.2567 11.2296 -2.08862 -0.30415 -0.439737 -2.09999 -0.211897 -22.9859 -1.90061 -0.918009 -2.97324 -1.90062 -0.918016 79.5855 -55.541 -114.371 26.2416 -6.83137 20.4319 -5.28813 -15.8416 -31.469 -1.29802 -0.253878 5.85876 -102.207 -42.2501 57.5034 -22.4047 6.10521 4.74806 10.476 2.658 -62.2571 18.7916 1.97965 6.68471 -18.2692 -0.439778 6.37706 -4.01098 -0.318125 0.382622 
-63.8896 93.2843 -79.8605 96.5843 -35.0023 93.807 -174.011 5.49268 94.663 -55.0802 16.9998 0.95844 45.0011 -9.45422 1.68908 46.9899 22.9698 11.0936 176.889 21.3735 90.9949 -35.3732 12.069 2.25889 67.0053 -1.08298 -0.578589 26.8177 -1.02836 11.493 -0.665645 8.0009 -90.4625 10.8666 -1.53907 -0.77659 -0.803633 -1.57174 -0.708098 -23.3422 -1.23451 -1.20326 -3.3295 -1.23453 -1.20327 78.9886 -54.7366 -115.506 24.9889 -6.38809 17.2962 -4.95806 -13.7855 -32.3631 -4.2052 -0.430932 4.53403 -103.489 -42.6009 55.7034 -24.5962 6.33532 5.58775 9.26409 3.01903 -58.1831 17.2476 1.57877 5.24662 -18.3681 -1.58446 5.16059 -1.74641 -1.49982 -0.274977 
-59.479 94.5703 -74.8749 96.1576 -35.4429 92.4377 -171.948 15.6996 92.0439 -56.4666 12.9564 -0.866829 49.434 -5.28564 5.27814 43.9643 18.5872 9.05543 176.697 17.23 91.0013 -34.9395 12.3204 1.81252 69.1064 -1.45743 -0.780896 28.5598 -0.75799 11.4158 -0.249012 8.18072 -90.3435 10.5103 -0.653637 -0.624358 -1.16065 -0.680498 -0.594987 -23.6953 -0.435773 -0.79193 -3.68265 -0.435786 -0.791933 77.8117 -54.2437 -117.349 21.88 -6.5764 13.4797 -4.9203 -11.6343 -37.282 -5.803 -0.533012 4.36988 -104.124 -42.7532 54.8106 -25.9759 7.8447 5.89227 10.0363 4.84264 -55.8244 16.1632 1.45006 5.05037 -18.8251 -3.37628 3.35642 1.50658 -3.36837 -0.887071 
-55.2964 95.3676 -70.4032 94.7124 -37.1883 91.5048 -171.059 21.3302 90.1791 -43.05 8.38427 -2.12439 55.7233 -0.690021 4.52814 44.1589 19.0578 10.0384 177.13 13.7711 92.034 -33.2193 11.9711 1.2015 70.787 -2.47601 -1.29934 30.1207 -0.425641 9.92342 0.234081 8.29286 -90.3454 10.2886 0.308469 -0.712768 -1.38246 0.276805 -0.725656 -23.9169 0.508402 -0.587118 -3.90426 0.508423 -0.587112 77.8465 -52.8208 -117.875 17.5838 -6.99673 8.00799 -5.70185 -11.1608 -41.3378 -7.44153 -0.61825 3.82116 -103.458 -42.8574 55.8722 -28.2959 8.19546 6.5909 10.4972 5.39569 -55.657 15.9629 1.4907 5.40418 -18.7651 -5.03762 2.86858 3.90936 -5.15075 -2.0617 
-50.9618 95.1809 -66.441 92.7372 -37.6507 90.4794 -172.434 22.011 89.4607 -17.4091 4.44556 -2.30652 54.0186 -2.24791 4.07016 45.9593 20.742 7.59252 177.142 11.53 92.8317 -33.4776 12.3366 0.994184 74.0828 -4.27296 -2.10447 32.2975 -0.047528 8.0117 0.525786 8.34879 -90.3622 10.1791 0.882408 -0.794099 -1.49185 0.846597 -0.832171 -24.0284 1.08026 -0.492183 -4.01576 1.08027 -0.492176 77.6209 -51.8903 -118.583 12.8288 -5.63965 3.32152 -6.52945 -10.2335 -44.7936 -9.74196 -0.671996 2.50152 -103.068 -42.7987 56.439 -29.3618 8.356 7.68025 10.1527 4.72873 -56.5319 15.327 1.40239 5.19508 -17.9429 -6.23021 2.48074 5.20487 -6.46733 -3.00899 
-46.2031 93.7815 -62.8413 91.3772 -38.1439 90.5419 -174.005 24.6614 90.2018 -5.11788 4.79929 -1.59592 45.9432 -11.7382 -3.26033 41.5158 15.0747 6.16248 177.527 10.7672 94.4057 -37.4977 13.8627 0.268747 77.0106 -6.18935 -2.86783 39.1383 0.876716 7.90403 0.756136 8.47276 -90.4253 9.93357 1.31396 -0.951572 -1.7371 1.27081 -1.00849 -24.2766 1.53919 -0.512629 -4.26394 1.53917 -0.512635 77.6072 -50.6847 -119.115 9.4659 -3.29372 -0.559724 -6.51877 -8.21187 -47.317 -11.4286 -0.683765 1.63542 -103.26 -42.7497 56.1223 -28.6601 8.56674 7.88871 11.1815 4.76417 -58.4545 13.8213 1.28487 5.27867 -15.5124 -6.88603 2.41409 5.32407 -7.21411 -3.67184 
